<mxfile host="app.diagrams.net" modified="2021-03-15T13:37:13.842Z" agent="5.0 (Windows)" etag="pdY_lEjAi3wYrn4LOkMh" version="14.4.7" type="github">
  <diagram id="zcQpIqdY1efjXdx4wWRZ" name="Page-1">
    <mxGraphModel dx="948" dy="527" grid="1" gridSize="10" guides="1" tooltips="1" connect="1" arrows="1" fold="1" page="1" pageScale="1" pageWidth="827" pageHeight="1169" math="0" shadow="0">
      <root>
        <mxCell id="0" />
        <mxCell id="1" parent="0" />
        <mxCell id="ft6uCSUFZToxJ7f9GJuj-2" value="" style="rounded=0;whiteSpace=wrap;html=1;" vertex="1" parent="1">
          <mxGeometry x="200" y="100" width="420" height="540" as="geometry" />
        </mxCell>
        <mxCell id="ft6uCSUFZToxJ7f9GJuj-3" value="Projekt" style="text;html=1;strokeColor=none;fillColor=none;align=center;verticalAlign=middle;whiteSpace=wrap;rounded=0;" vertex="1" parent="1">
          <mxGeometry x="200" y="100" width="120" height="50" as="geometry" />
        </mxCell>
        <mxCell id="ft6uCSUFZToxJ7f9GJuj-4" value="medarbejder" style="shape=umlActor;verticalLabelPosition=bottom;verticalAlign=top;html=1;outlineConnect=0;" vertex="1" parent="1">
          <mxGeometry x="110" y="420" width="30" height="60" as="geometry" />
        </mxCell>
        <mxCell id="ft6uCSUFZToxJ7f9GJuj-5" value="Projektleder" style="shape=umlActor;verticalLabelPosition=bottom;verticalAlign=top;html=1;outlineConnect=0;" vertex="1" parent="1">
          <mxGeometry x="100" y="200" width="50" height="80" as="geometry" />
        </mxCell>
        <mxCell id="ft6uCSUFZToxJ7f9GJuj-8" value="Opdele projekt i aktiviteter" style="ellipse;whiteSpace=wrap;html=1;" vertex="1" parent="1">
          <mxGeometry x="230" y="160" width="120" height="80" as="geometry" />
        </mxCell>
        <mxCell id="ft6uCSUFZToxJ7f9GJuj-9" value="Tildele projektleder" style="ellipse;whiteSpace=wrap;html=1;" vertex="1" parent="1">
          <mxGeometry x="230" y="260" width="120" height="80" as="geometry" />
        </mxCell>
        <mxCell id="ft6uCSUFZToxJ7f9GJuj-10" value="&lt;div&gt;Tildele medarbejdere til projekt&lt;br&gt;&lt;/div&gt;" style="ellipse;whiteSpace=wrap;html=1;" vertex="1" parent="1">
          <mxGeometry x="230" y="370" width="120" height="80" as="geometry" />
        </mxCell>
        <mxCell id="ft6uCSUFZToxJ7f9GJuj-11" value="Se ledige medarbejdere" style="ellipse;whiteSpace=wrap;html=1;" vertex="1" parent="1">
          <mxGeometry x="230" y="470" width="120" height="80" as="geometry" />
        </mxCell>
      </root>
    </mxGraphModel>
  </diagram>
</mxfile>
